<?xml version="1.0" standalone="no"?>
<!DOCTYPE svg PUBLIC "-//W3C//DTD SVG 20010904//EN"
 "http://www.w3.org/TR/2001/REC-SVG-20010904/DTD/svg10.dtd">
<svg version="1.0" xmlns="http://www.w3.org/2000/svg"
 width="539.000000pt" height="539.000000pt" viewBox="0 0 539.000000 539.000000"
 preserveAspectRatio="xMidYMid meet">
<metadata>
Created by potrace 1.14, written by Peter Selinger 2001-2017
</metadata>
<g transform="translate(0.000000,539.000000) scale(0.100000,-0.100000)"
fill="#000000" stroke="none">
<path d="M2675 4549 c-12 -6 -36 -33 -55 -61 -19 -28 -39 -56 -45 -62 -5 -6
-26 -32 -45 -56 -19 -25 -40 -52 -47 -60 -7 -8 -30 -39 -51 -67 -32 -45 -258
-344 -287 -380 -27 -34 -81 -104 -118 -154 -23 -31 -64 -86 -92 -123 -27 -37
-84 -111 -126 -164 -42 -53 -91 -118 -110 -144 -19 -26 -95 -127 -169 -223
-74 -97 -164 -216 -200 -264 -36 -48 -71 -94 -78 -102 -7 -8 -31 -39 -53 -69
-56 -77 -109 -146 -141 -183 -15 -18 -28 -35 -28 -39 0 -4 -6 -13 -13 -20 -6
-7 -46 -58 -87 -113 -41 -55 -77 -102 -80 -105 -7 -6 -136 -177 -203 -269 -26
-36 -57 -76 -67 -88 -11 -13 -49 -62 -85 -110 -36 -49 -70 -94 -76 -101 -6 -7
-48 -63 -95 -123 -128 -169 -126 -197 24 -311 54 -40 102 -78 107 -84 6 -6 47
-37 93 -69 45 -32 82 -61 82 -65 0 -22 80 -36 128 -24 20 6 115 122 262 320
19 26 40 52 45 58 6 6 57 74 115 151 57 77 110 146 117 153 7 8 27 35 45 60
17 26 50 70 73 97 23 28 65 83 94 124 29 40 66 88 81 105 l29 32 503 -1 503 0
1 -595 c0 -436 4 -601 12 -617 7 -12 26 -32 44 -44 31 -23 38 -23 298 -24 294
-2 316 2 350 57 20 32 20 48 20 888 0 734 2 852 14 835 8 -11 41 -68 73 -125
33 -58 98 -172 145 -255 47 -82 105 -186 129 -230 23 -44 57 -102 74 -130 18
-27 50 -84 72 -125 22 -41 66 -120 98 -175 32 -55 76 -134 98 -175 21 -41 45
-82 52 -90 6 -8 19 -28 27 -45 16 -31 90 -164 180 -324 29 -51 67 -110 84
-129 29 -33 37 -36 79 -35 26 1 54 8 64 16 9 8 36 26 61 39 25 14 61 35 80 46
19 11 58 33 85 48 180 96 205 119 205 183 0 30 -43 118 -140 286 -78 136 -219
385 -252 445 -14 25 -50 89 -81 142 -31 53 -71 125 -90 160 -19 35 -66 119
-106 188 -40 69 -81 141 -91 160 -24 48 -41 78 -73 127 -32 50 -33 60 -9 67
29 10 186 117 229 157 221 206 344 497 338 796 -4 163 -24 255 -88 413 -109
266 -345 483 -617 569 -36 11 -83 23 -105 26 -70 12 -1188 15 -1210 4z m940
-383 c32 -5 116 -34 175 -59 42 -18 173 -111 211 -149 39 -39 103 -145 128
-213 26 -69 36 -204 20 -274 -27 -121 -131 -277 -226 -342 -27 -18 -50 -36
-53 -40 -3 -4 -28 -18 -55 -29 -163 -71 -281 -93 -442 -82 l-23 2 0 593 c0
327 3 597 7 601 7 7 204 1 258 -8z m-989 -1248 l-1 -423 -322 -3 c-178 -1
-323 0 -323 3 0 3 10 16 21 29 12 14 43 54 68 89 42 59 176 236 312 413 30 39
65 86 79 104 14 18 53 69 88 113 34 43 62 83 62 88 0 5 4 9 8 9 5 0 8 -190 8
-422z"/>
</g>
</svg>
